<svg xmlns="http://www.w3.org/2000/svg" width="198" height="198" viewBox="0 0 198 198">
    <defs>
        <filter id="x151o8vuqa">
            <feColorMatrix in="SourceGraphic" values="0 0 0 0 1.000000 0 0 0 0 0.690196 0 0 0 0 0.486275 0 0 0 1.000000 0"/>
        </filter>
    </defs>
    <g fill="none" fill-rule="evenodd">
        <g>
            <g filter="url(#x151o8vuqa)" transform="translate(-88 -2456) translate(0 2360)">
                <g fill="#FF8041" transform="rotate(90 95 191)">
                    <circle cx="3.4" cy="3.4" r="3.4"/>
                    <circle cx="30.6" cy="3.4" r="3.4"/>
                    <circle cx="57.8" cy="3.4" r="3.4"/>
                    <circle cx="85" cy="3.4" r="3.4"/>
                    <circle cx="112.2" cy="3.4" r="3.4"/>
                    <circle cx="139.4" cy="3.4" r="3.4"/>
                    <circle cx="166.6" cy="3.4" r="3.4"/>
                    <circle cx="193.8" cy="3.4" r="3.4"/>
                    <circle cx="3.4" cy="30.6" r="3.4"/>
                    <circle cx="30.6" cy="30.6" r="3.4"/>
                    <circle cx="57.8" cy="30.6" r="3.4"/>
                    <circle cx="85" cy="30.6" r="3.4"/>
                    <circle cx="112.2" cy="30.6" r="3.4"/>
                    <circle cx="139.4" cy="30.6" r="3.4"/>
                    <circle cx="166.6" cy="30.6" r="3.4"/>
                    <circle cx="193.8" cy="30.6" r="3.4"/>
                    <circle cx="3.4" cy="57.8" r="3.4"/>
                    <circle cx="30.6" cy="57.8" r="3.4"/>
                    <circle cx="57.8" cy="57.8" r="3.4"/>
                    <circle cx="85" cy="57.8" r="3.4"/>
                    <circle cx="112.2" cy="57.8" r="3.4"/>
                    <circle cx="139.4" cy="57.8" r="3.4"/>
                    <circle cx="166.6" cy="57.8" r="3.4"/>
                    <circle cx="193.8" cy="57.8" r="3.4"/>
                    <circle cx="3.4" cy="85" r="3.4"/>
                    <circle cx="30.6" cy="85" r="3.4"/>
                    <circle cx="57.8" cy="85" r="3.4"/>
                    <circle cx="85" cy="85" r="3.4"/>
                    <circle cx="112.2" cy="85" r="3.4"/>
                    <circle cx="139.4" cy="85" r="3.4"/>
                    <circle cx="166.6" cy="85" r="3.4"/>
                    <circle cx="193.8" cy="85" r="3.4"/>
                    <circle cx="3.4" cy="112.2" r="3.4"/>
                    <circle cx="30.6" cy="112.2" r="3.4"/>
                    <circle cx="57.8" cy="112.2" r="3.4"/>
                    <circle cx="85" cy="112.2" r="3.4"/>
                    <circle cx="112.2" cy="112.2" r="3.4"/>
                    <circle cx="139.4" cy="112.2" r="3.4"/>
                    <circle cx="166.6" cy="112.2" r="3.4"/>
                    <circle cx="193.8" cy="112.2" r="3.4"/>
                    <circle cx="3.4" cy="139.4" r="3.4"/>
                    <circle cx="30.6" cy="139.4" r="3.4"/>
                    <circle cx="57.8" cy="139.4" r="3.4"/>
                    <circle cx="85" cy="139.4" r="3.4"/>
                    <circle cx="112.2" cy="139.4" r="3.4"/>
                    <circle cx="139.4" cy="139.4" r="3.4"/>
                    <circle cx="166.6" cy="139.4" r="3.4"/>
                    <circle cx="193.8" cy="139.4" r="3.4"/>
                    <circle cx="3.4" cy="166.6" r="3.4"/>
                    <circle cx="30.6" cy="166.6" r="3.4"/>
                    <circle cx="57.8" cy="166.6" r="3.4"/>
                    <circle cx="85" cy="166.6" r="3.4"/>
                    <circle cx="112.2" cy="166.6" r="3.4"/>
                    <circle cx="139.4" cy="166.6" r="3.4"/>
                    <circle cx="166.6" cy="166.6" r="3.4"/>
                    <circle cx="193.8" cy="166.6" r="3.4"/>
                    <circle cx="3.4" cy="193.8" r="3.4"/>
                    <circle cx="30.6" cy="193.8" r="3.4"/>
                    <circle cx="57.8" cy="193.8" r="3.4"/>
                    <circle cx="85" cy="193.8" r="3.4"/>
                    <circle cx="112.2" cy="193.8" r="3.4"/>
                    <circle cx="139.4" cy="193.8" r="3.4"/>
                    <circle cx="166.6" cy="193.8" r="3.4"/>
                    <circle cx="193.8" cy="193.8" r="3.4"/>
                </g>
            </g>
        </g>
    </g>
</svg>
